<?xml version="1.0" standalone="no"?>
<!DOCTYPE svg PUBLIC "-//W3C//DTD SVG 20010904//EN"
 "http://www.w3.org/TR/2001/REC-SVG-20010904/DTD/svg10.dtd">
<svg version="1.0" xmlns="http://www.w3.org/2000/svg"
 width="512.000000pt" height="512.000000pt" viewBox="0 0 512.000000 512.000000"
 preserveAspectRatio="xMidYMid meet">

<g transform="translate(0.000000,512.000000) scale(0.100000,-0.100000)"
fill="#000000" stroke="none">
<path d="M881 4593 c-19 -16 -21 -30 -23 -133 l-3 -115 -155 -3 c-144 -2 -156
-4 -172 -23 -17 -20 -18 -119 -18 -1759 0 -1640 1 -1739 17 -1759 17 -19 29
-21 173 -23 l155 -3 3 -115 c3 -153 0 -150 176 -150 175 0 170 -5 176 147 l5
118 1345 0 1345 0 5 -118 c6 -152 1 -147 176 -147 176 0 173 -3 176 150 l3
115 155 3 c144 2 156 4 173 23 16 20 17 119 17 1759 0 1640 -1 1739 -18 1759
-16 19 -28 21 -172 23 l-155 3 -3 115 c-2 103 -4 117 -23 133 -20 16 -70 17
-730 17 -520 0 -715 -3 -734 -12 -31 -14 -34 -27 -38 -153 l-2 -100 -175 0
-175 0 -2 100 c-4 126 -7 139 -38 153 -19 9 -214 12 -734 12 -660 0 -710 -1
-730 -17z m1369 -183 l0 -70 -630 0 -630 0 0 70 0 70 630 0 630 0 0 -70z
m1880 0 l0 -70 -630 0 -630 0 0 70 0 70 630 0 630 0 0 -70z m350 -660 l0 -460
-1920 0 -1920 0 0 460 0 460 1920 0 1920 0 0 -460z m-2 -1717 l2 -1123 -1920
0 -1920 0 0 1118 c0 615 3 1122 7 1125 3 4 866 6 1917 5 l1911 -3 3 -1122z
m-3398 -1323 l0 -70 -45 0 -45 0 0 70 0 70 45 0 45 0 0 -70z m3050 0 l0 -70
-45 0 -45 0 0 70 0 70 45 0 45 0 0 -70z"/>
<path d="M1043 4024 c-58 -21 -126 -85 -157 -146 -31 -62 -35 -157 -10 -230
49 -144 227 -225 374 -169 148 56 226 226 171 371 -29 76 -71 123 -143 159
-51 26 -73 31 -127 30 -36 0 -85 -7 -108 -15z m195 -140 c32 -24 72 -98 72
-134 0 -45 -42 -113 -85 -138 -102 -58 -235 18 -235 136 0 57 31 113 79 141
45 27 128 25 169 -5z"/>
<path d="M1980 4023 c-61 -22 -142 -104 -163 -167 -27 -80 -22 -162 14 -234
32 -65 66 -99 133 -135 33 -17 58 -22 126 -22 76 0 91 3 138 30 59 32 91 66
125 129 17 33 22 58 22 126 0 77 -3 90 -31 140 -34 61 -105 121 -164 139 -52
15 -146 12 -200 -6z m197 -139 c51 -39 68 -71 68 -133 0 -47 -5 -64 -27 -93
-93 -122 -273 -68 -286 84 -3 44 0 59 20 88 40 59 84 82 146 78 31 -3 64 -13
79 -24z"/>
<path d="M2902 4009 c-65 -32 -99 -66 -135 -133 -17 -33 -22 -58 -22 -126 0
-76 3 -91 30 -138 32 -59 66 -91 129 -125 59 -31 193 -31 252 0 67 36 101 70
133 135 58 115 37 243 -53 334 -91 90 -219 111 -334 53z m209 -122 c48 -32 79
-83 79 -129 0 -150 -166 -222 -270 -118 -61 61 -66 147 -13 211 52 61 143 77
204 36z"/>
<path d="M3842 4009 c-72 -36 -114 -83 -143 -159 -55 -145 23 -315 171 -371
147 -56 325 24 374 169 87 253 -166 479 -402 361z m209 -122 c103 -69 106
-197 7 -270 -15 -11 -48 -22 -75 -24 -135 -11 -219 146 -137 255 49 63 142 82
205 39z"/>
<path d="M900 2963 c-41 -15 -40 -2 -40 -924 l0 -888 22 -15 c20 -14 196 -16
1678 -16 1482 0 1658 2 1678 16 l22 15 0 888 c0 750 -2 890 -14 907 -14 19
-44 19 -1673 21 -912 1 -1665 -1 -1673 -4z m3230 -923 l0 -790 -1570 0 -1570
0 0 790 0 790 1570 0 1570 0 0 -790z"/>
</g>
</svg>
